<svg xmlns="http://www.w3.org/2000/svg" width="375" viewBox="0 0 375 375" height="375" version="1.0"><defs><clipPath id="a"><path d="M 63 194 L 79 194 L 79 207 L 63 207 Z M 63 194"/></clipPath><clipPath id="b"><path d="M 82.9375 264.316406 L 45.015625 140.230469 L 141.128906 110.859375 L 179.050781 234.945312 Z M 82.9375 264.316406"/></clipPath><clipPath id="c"><path d="M 178.828125 235.011719 L 140.90625 110.925781 L 44.792969 140.300781 L 82.714844 264.382812 Z M 178.828125 235.011719"/></clipPath><clipPath id="d"><path d="M 77 191 L 134 191 L 134 248 L 77 248 Z M 77 191"/></clipPath><clipPath id="e"><path d="M 82.9375 264.316406 L 45.015625 140.230469 L 141.128906 110.859375 L 179.050781 234.945312 Z M 82.9375 264.316406"/></clipPath><clipPath id="f"><path d="M 178.828125 235.011719 L 140.90625 110.925781 L 44.792969 140.300781 L 82.714844 264.382812 Z M 178.828125 235.011719"/></clipPath><clipPath id="g"><path d="M 76 126 L 144 126 L 144 200 L 76 200 Z M 76 126"/></clipPath><clipPath id="h"><path d="M 82.9375 264.316406 L 45.015625 140.230469 L 141.128906 110.859375 L 179.050781 234.945312 Z M 82.9375 264.316406"/></clipPath><clipPath id="i"><path d="M 178.828125 235.011719 L 140.90625 110.925781 L 44.792969 140.300781 L 82.714844 264.382812 Z M 178.828125 235.011719"/></clipPath><clipPath id="j"><path d="M 78 126 L 144 126 L 144 200 L 78 200 Z M 78 126"/></clipPath><clipPath id="k"><path d="M 82.9375 264.316406 L 45.015625 140.230469 L 141.128906 110.859375 L 179.050781 234.945312 Z M 82.9375 264.316406"/></clipPath><clipPath id="l"><path d="M 178.828125 235.011719 L 140.90625 110.925781 L 44.792969 140.300781 L 82.714844 264.382812 Z M 178.828125 235.011719"/></clipPath><clipPath id="m"><path d="M 61 124 L 146 124 L 146 249 L 61 249 Z M 61 124"/></clipPath><clipPath id="n"><path d="M 82.9375 264.316406 L 45.015625 140.230469 L 141.128906 110.859375 L 179.050781 234.945312 Z M 82.9375 264.316406"/></clipPath><clipPath id="o"><path d="M 178.828125 235.011719 L 140.90625 110.925781 L 44.792969 140.300781 L 82.714844 264.382812 Z M 178.828125 235.011719"/></clipPath></defs><g clip-path="url(#a)"><g clip-path="url(#b)"><g clip-path="url(#c)"><path fill="#FDF7F2" d="M 66.5625 206.417969 L 63.007812 194.785156 C 67.019531 197.511719 75.199219 194.496094 78.792969 196.320312 C 76.808594 200.242188 68.308594 201.808594 66.5625 206.417969 Z M 66.5625 206.417969"/></g></g></g><g clip-path="url(#d)"><g clip-path="url(#e)"><g clip-path="url(#f)"><path fill="#9DCD5A" d="M 121.757812 213.125 C 124.480469 230.417969 133.890625 247.085938 133.890625 247.085938 C 133.890625 247.085938 104.371094 251.539062 87.710938 231.804688 C 87.710938 231.804688 73.878906 217.617188 78.945312 195.933594 C 94.835938 186.039062 118.519531 193.242188 121.757812 213.125 Z M 121.757812 213.125"/><path fill="#81A969" d="M 133.898438 247.109375 C 133.898438 247.109375 131.515625 247.46875 127.734375 247.519531 C 124.730469 241.167969 120.222656 230.367188 118.472656 219.238281 C 114.269531 198.617188 87.390625 203.320312 77.953125 202.128906 C 78.109375 200.140625 78.441406 198.074219 78.914062 195.917969 C 92.792969 187.253906 118.03125 191.894531 121.730469 213.109375 C 124.484375 230.4375 133.898438 247.109375 133.898438 247.109375 Z M 133.898438 247.109375"/></g></g></g><g clip-path="url(#g)"><g clip-path="url(#h)"><g clip-path="url(#i)"><path fill="#9DCD5A" d="M 78.703125 196.03125 C 105.515625 207.503906 129.804688 190.308594 131.324219 170.421875 C 133.289062 148.285156 143.765625 126.394531 143.765625 126.394531 C 143.765625 126.394531 106.070312 123.449219 86.726562 149.890625 C 86.726562 149.890625 70.460938 169.058594 78.703125 196.03125 Z M 78.703125 196.03125"/></g></g></g><g clip-path="url(#j)"><g clip-path="url(#k)"><g clip-path="url(#l)"><path fill="#81A969" d="M 143.765625 126.394531 C 143.765625 126.394531 133.296875 148.304688 131.324219 170.421875 C 129.789062 190.339844 105.515625 207.503906 78.703125 196.03125 C 78.578125 195.625 78.460938 195.242188 78.359375 194.832031 C 102.796875 201.753906 123.792969 185.640625 125.226562 167.175781 C 126.738281 150.164062 133.269531 133.285156 136.226562 126.414062 C 140.832031 126.160156 143.765625 126.394531 143.765625 126.394531 Z M 143.765625 126.394531"/></g></g></g><g clip-path="url(#m)"><g clip-path="url(#n)"><g clip-path="url(#o)"><path fill="#FDF7F2" d="M 145.089844 127.007812 C 145.089844 127.007812 134.726562 148.785156 132.804688 170.492188 C 131.953125 181.507812 124.535156 191.609375 113.703125 197.007812 C 118.816406 201.066406 122.3125 206.703125 123.21875 212.886719 C 125.316406 224.519531 129.46875 235.925781 135.167969 246.339844 C 135.632812 247.375 135.128906 248.3125 134.101562 248.503906 C 134.101562 248.503906 103.910156 253.164062 86.632812 232.785156 C 86.566406 232.730469 74.335938 220.0625 76.644531 200.425781 C 75.574219 201.121094 74.402344 201.722656 73.28125 202.335938 C 70.714844 203.785156 68.527344 205.261719 67.910156 206.875 C 67.421875 208.179688 65.535156 208.140625 65.125 206.792969 L 61.570312 195.160156 C 61.164062 193.835938 62.65625 192.742188 63.804688 193.519531 C 65.234375 194.484375 67.96875 194.554688 70.941406 194.359375 C 72.855469 194.242188 74.824219 193.984375 76.636719 194.191406 C 69.707031 167.722656 85.5 148.949219 85.554688 148.882812 C 105.519531 121.8125 143.882812 124.917969 143.882812 124.917969 C 144.925781 125.019531 145.539062 126.058594 145.089844 127.007812 Z M 141.515625 127.828125 C 135.972656 127.605469 105.039062 127.335938 87.921875 150.738281 C 87.90625 150.769531 87.890625 150.796875 87.851562 150.832031 C 87.851562 150.832031 72.742188 168.613281 79.714844 194.085938 C 81.550781 193.328125 84.914062 191.734375 88.332031 189.117188 C 87.554688 185.769531 86.824219 182.726562 86.433594 179.433594 C 86.269531 177.9375 86.15625 176.671875 86.417969 175.507812 C 86.738281 174.0625 88.777344 173.953125 89.253906 175.355469 C 89.335938 175.625 89.351562 175.914062 89.285156 176.179688 C 89.210938 176.496094 89.183594 177.707031 89.359375 179.082031 C 89.714844 181.867188 90.230469 184.363281 90.855469 186.972656 C 94.078125 183.949219 97.023438 179.953125 98.449219 174.777344 C 100.566406 167.011719 102.078125 162.03125 103.558594 158.484375 C 105.039062 154.9375 106.597656 152.765625 108.621094 150.921875 C 109.410156 150.1875 110.691406 150.507812 111.023438 151.511719 C 111.214844 152.066406 111.035156 152.6875 110.613281 153.085938 C 108.855469 154.679688 107.65625 156.324219 106.273438 159.617188 C 105.046875 162.546875 103.726562 166.78125 101.953125 173.167969 C 102.644531 173.007812 103.417969 172.792969 104.273438 172.53125 C 106.855469 171.769531 109.882812 170.621094 111.457031 169.476562 C 112.253906 168.867188 113.429688 169.242188 113.742188 170.179688 C 113.949219 170.777344 113.714844 171.464844 113.191406 171.847656 C 110.992188 173.449219 107.800781 174.546875 105.109375 175.347656 C 103.390625 175.847656 101.941406 176.191406 101.039062 176.394531 C 99.082031 182.738281 95.148438 187.378906 91.148438 190.664062 C 88.625 192.664062 85.675781 194.546875 82.925781 195.878906 C 109.09375 204.039062 128.085938 185.808594 129.90625 170.296875 C 129.90625 170.296875 129.90625 170.296875 129.902344 170.273438 C 131.59375 150.875 139.332031 132.695312 141.515625 127.828125 Z M 131.554688 245.820312 C 129.21875 241.402344 122.601562 227.980469 120.308594 213.378906 C 118.601562 206.976562 115.65625 202.179688 110.652344 198.40625 C 104.84375 200.695312 98.238281 201.683594 91.21875 200.90625 C 93.851562 203.148438 96.308594 206.105469 97.847656 210.003906 C 98.574219 210.128906 99.667969 210.308594 100.933594 210.585938 C 103.128906 211.066406 105.699219 211.730469 107.59375 212.921875 C 107.894531 213.097656 108.101562 213.378906 108.226562 213.710938 C 108.675781 215.019531 107.199219 216.160156 106.035156 215.410156 C 104.816406 214.652344 102.367188 213.902344 100.3125 213.476562 C 99.839844 213.375 99.394531 213.289062 99 213.214844 C 100.636719 217.847656 101.851562 220.9375 102.921875 223.066406 C 104.171875 225.53125 105.144531 226.707031 106.578125 227.84375 C 106.804688 228.019531 106.976562 228.261719 107.089844 228.546875 C 107.535156 229.929688 105.886719 231.074219 104.765625 230.140625 C 103.039062 228.777344 101.667969 227.109375 100.292969 224.386719 C 98.953125 221.699219 97.539062 217.957031 95.515625 212.140625 C 94.3125 208.605469 91.875 205.398438 89.324219 203.179688 C 89.019531 205.089844 88.753906 207.039062 88.652344 208.886719 C 88.609375 209.957031 88.695312 210.886719 88.75 211.066406 C 88.984375 211.832031 88.550781 212.675781 87.785156 212.910156 C 87.015625 213.144531 86.171875 212.714844 85.9375 211.949219 C 85.636719 210.960938 85.675781 209.96875 85.722656 208.75 C 85.890625 206.144531 86.226562 203.78125 86.675781 201.214844 C 84.292969 200.027344 82.222656 198.992188 80.050781 198.179688 C 76.324219 218.105469 88.832031 230.859375 88.832031 230.859375 C 88.859375 230.875 88.875 230.917969 88.902344 230.933594 C 103.089844 247.742188 126.292969 246.347656 131.554688 245.820312 Z M 75.832031 197.285156 C 74.507812 197.222656 72.9375 197.261719 71.167969 197.359375 C 69.234375 197.484375 67.210938 197.5625 65.296875 197.1875 L 67.117188 203.140625 C 68.480469 201.792969 70.207031 200.746094 71.871094 199.820312 C 73.429688 198.953125 74.75 198.105469 75.832031 197.285156 Z M 75.832031 197.285156"/></g></g></g><g fill="#464A4E"><g><g><path d="M 11.21875 -9.28125 L 11.929688 -10.585938 L 25.199219 -44.546875 C 25.273438 -44.695312 25.347656 -45.066406 25.347656 -45.402344 L 25.347656 -50.324219 C 25.347656 -51.179688 25.085938 -51.589844 24.304688 -51.589844 L 2.421875 -51.589844 C 1.863281 -51.589844 1.492188 -51.179688 1.492188 -50.359375 L 1.492188 -44.058594 C 1.492188 -43.242188 1.828125 -42.832031 2.421875 -42.832031 L 14.6875 -42.832031 L 14.128906 -41.675781 L 1.230469 -7.417969 C 1.082031 -7.121094 0.96875 -6.820312 0.933594 -6.375 L 0.933594 -1.191406 C 0.933594 -0.371094 1.304688 0 1.902344 0 L 25.011719 0 C 25.570312 0 25.90625 -0.371094 25.90625 -1.191406 L 25.90625 -8.125 C 25.90625 -8.910156 25.570312 -9.28125 25.011719 -9.28125 Z M 11.21875 -9.28125" transform="translate(149.027 181.532)"/></g></g></g><g fill="#464A4E"><g><g><path d="M 12.597656 -8.984375 L 12.597656 -21.621094 L 23.484375 -21.621094 C 24.191406 -21.621094 24.675781 -21.992188 24.675781 -22.886719 L 24.675781 -29.261719 C 24.675781 -30.195312 24.117188 -30.566406 23.484375 -30.566406 L 12.597656 -30.566406 L 12.597656 -42.53125 L 26.242188 -42.53125 C 26.914062 -42.53125 27.285156 -42.980469 27.285156 -43.875 L 27.285156 -50.210938 C 27.285156 -51.144531 26.914062 -51.589844 26.242188 -51.589844 L 3.953125 -51.589844 C 3.167969 -51.589844 2.683594 -51.03125 2.683594 -50.136719 L 2.683594 -1.417969 C 2.683594 -0.523438 3.09375 0 3.953125 0 L 26.429688 0 C 27.023438 0 27.511719 -0.410156 27.511719 -1.304688 L 27.511719 -7.714844 C 27.511719 -8.574219 27.023438 -8.984375 26.429688 -8.984375 Z M 12.597656 -8.984375" transform="translate(184.87 181.532)"/></g></g></g><g fill="#464A4E"><g><g><path d="M 20.613281 -31.945312 C 20.613281 -29.410156 19.046875 -27.734375 16.066406 -27.734375 L 12.597656 -27.734375 L 12.597656 -42.53125 L 16.328125 -42.53125 C 18.898438 -42.53125 20.613281 -40.816406 20.613281 -38.132812 Z M 28.890625 -0.0390625 C 29.894531 -0.0390625 30.230469 -0.933594 30.230469 -1.601562 L 30.230469 -8.3125 C 30.230469 -15.769531 28.589844 -20.464844 25.234375 -23.296875 C 28.253906 -25.3125 30.566406 -28.367188 30.566406 -32.804688 L 30.566406 -38.132812 C 30.566406 -45.550781 24.789062 -51.589844 17.109375 -51.589844 L 3.953125 -51.589844 C 3.167969 -51.589844 2.683594 -51.03125 2.683594 -50.136719 L 2.683594 -1.378906 C 2.683594 -0.523438 3.058594 0 3.914062 0 L 11.371094 0 C 12.1875 0 12.597656 -0.523438 12.597656 -1.378906 L 12.597656 -20.054688 C 17.707031 -19.71875 20.316406 -16.699219 20.316406 -9.503906 L 20.316406 -1.714844 C 20.316406 -0.597656 21.171875 -0.0390625 22.03125 -0.0390625 Z M 28.890625 -0.0390625" transform="translate(222.167 181.532)"/></g></g></g><g fill="#464A4E"><g><g><path d="M 29.710938 -39.4375 C 29.710938 -47.566406 23.222656 -52.375 15.730469 -52.375 C 8.273438 -52.375 1.863281 -47.527344 1.863281 -39.4375 L 1.863281 -12.113281 C 1.863281 -4.210938 8.273438 0.820312 15.730469 0.820312 C 23.222656 0.820312 29.710938 -4.027344 29.710938 -12.113281 Z M 15.804688 -43.425781 C 18.300781 -43.425781 19.792969 -41.265625 19.792969 -38.878906 L 19.792969 -12.414062 C 19.792969 -10.066406 18.300781 -8.164062 15.730469 -8.164062 C 13.195312 -8.164062 11.777344 -10.289062 11.777344 -12.636719 L 11.777344 -38.878906 C 11.777344 -41.265625 13.269531 -43.425781 15.804688 -43.425781 Z M 15.804688 -43.425781" transform="translate(263.675 181.532)"/></g></g></g><g fill="#81A969"><g><g><path d="M 43.039062 -44.839844 C 43.039062 -45.507812 42.703125 -46.171875 41.96875 -46.171875 L 35.195312 -46.171875 C 34.53125 -46.171875 34.164062 -45.539062 34.164062 -44.839844 L 34.164062 -11.34375 C 34.164062 -9.242188 32.929688 -7.304688 30.59375 -7.304688 C 28.257812 -7.304688 27.023438 -9.242188 27.023438 -11.34375 L 27.023438 -44.871094 C 27.023438 -45.574219 26.824219 -46.171875 26.023438 -46.171875 L 19.015625 -46.171875 C 18.515625 -46.171875 18.117188 -45.574219 18.117188 -44.871094 L 18.117188 -11.34375 C 18.117188 -9.242188 16.847656 -7.304688 14.511719 -7.304688 C 12.3125 -7.304688 11.007812 -9.242188 11.007812 -11.34375 L 11.007812 -44.871094 C 11.007812 -45.574219 10.777344 -46.171875 10.007812 -46.171875 L 2.96875 -46.171875 C 2.46875 -46.171875 2.101562 -45.574219 2.101562 -44.871094 L 2.101562 -10.84375 C 2.101562 -4.4375 6.574219 0.734375 14.546875 0.734375 C 18.347656 0.734375 21.152344 -0.96875 22.851562 -3.636719 C 24.453125 -0.96875 27.191406 0.734375 31.027344 0.734375 C 38.632812 0.734375 43.039062 -4.4375 43.039062 -10.84375 Z M 43.039062 -44.839844" transform="translate(149.027 246.46)"/></g></g></g><g fill="#81A969"><g><g><path d="M 11.007812 -34.832031 C 11.007812 -36.933594 12.3125 -38.832031 14.578125 -38.832031 C 16.816406 -38.832031 18.117188 -36.933594 18.117188 -34.832031 L 18.117188 -18.78125 L 11.007812 -18.78125 Z M 27.023438 -35.332031 C 27.023438 -41.734375 21.21875 -46.90625 14.546875 -46.90625 C 7.875 -46.90625 2.101562 -41.734375 2.101562 -35.332031 L 2.101562 -1.300781 C 2.101562 -0.601562 2.46875 0 2.96875 0 L 10.007812 0 C 10.808594 0 11.007812 -0.566406 11.007812 -1.300781 L 11.007812 -11.007812 L 18.117188 -11.007812 L 18.117188 -1.335938 C 18.117188 -0.632812 18.515625 0 19.183594 0 L 25.957031 0 C 26.722656 0 27.023438 -0.667969 27.023438 -1.335938 Z M 27.023438 -35.332031" transform="translate(194.159 246.46)"/></g></g></g><g fill="#81A969"><g><g><path d="M 16.78125 -32.796875 C 16.78125 -31.859375 16.914062 -31.527344 17.75 -31.527344 L 23.71875 -31.527344 C 24.789062 -31.527344 25.023438 -31.859375 25.023438 -32.796875 L 25.023438 -34.695312 C 25.023438 -42.070312 20.085938 -46.875 13.179688 -46.875 C 8.507812 -46.875 1.335938 -43.570312 1.335938 -34.898438 C 1.335938 -27.257812 4.46875 -25.054688 11.441406 -19.382812 C 15.546875 -16.046875 17.28125 -14.546875 17.28125 -11.308594 C 17.28125 -8.875 15.582031 -7.339844 13.476562 -7.339844 C 11.777344 -7.339844 9.675781 -8.40625 9.675781 -11.742188 L 9.675781 -13.246094 C 9.675781 -14.246094 9.476562 -14.613281 8.539062 -14.613281 L 2.46875 -14.613281 C 1.535156 -14.613281 1.335938 -14.144531 1.335938 -13.011719 L 1.335938 -11.242188 C 1.335938 -4.972656 5.371094 0.734375 13.410156 0.734375 C 20.785156 0.734375 25.722656 -4.605469 25.722656 -10.84375 C 25.722656 -19.285156 20.75 -22.917969 14.511719 -27.757812 C 11.542969 -30.058594 9.574219 -31.492188 9.574219 -34.664062 C 9.574219 -37.699219 11.511719 -38.867188 13.179688 -38.867188 C 15.582031 -38.867188 16.78125 -36.964844 16.78125 -34.664062 Z M 16.78125 -32.796875" transform="translate(223.28 246.46)"/></g></g></g><g fill="#81A969"><g><g><path d="M 22.253906 -38.066406 C 22.820312 -38.066406 23.21875 -38.464844 23.21875 -39.265625 L 23.21875 -44.972656 C 23.21875 -45.773438 22.820312 -46.171875 22.253906 -46.171875 L 0.933594 -46.171875 C 0.367188 -46.171875 -0.0351562 -45.738281 -0.0351562 -44.9375 L -0.0351562 -39.265625 C -0.0351562 -38.464844 0.367188 -38.066406 0.933594 -38.066406 L 7.140625 -38.066406 L 7.140625 -1.167969 C 7.140625 -0.398438 7.539062 0 8.105469 0 L 15.078125 0 C 15.613281 0 16.046875 -0.398438 16.046875 -1.167969 L 16.046875 -38.066406 Z M 22.253906 -38.066406" transform="translate(249.966 246.46)"/></g></g></g><g fill="#81A969"><g><g><path d="M 11.277344 -8.039062 L 11.277344 -19.351562 L 21.019531 -19.351562 C 21.652344 -19.351562 22.085938 -19.683594 22.085938 -20.484375 L 22.085938 -26.1875 C 22.085938 -27.023438 21.585938 -27.355469 21.019531 -27.355469 L 11.277344 -27.355469 L 11.277344 -38.066406 L 23.488281 -38.066406 C 24.085938 -38.066406 24.421875 -38.464844 24.421875 -39.265625 L 24.421875 -44.9375 C 24.421875 -45.773438 24.085938 -46.171875 23.488281 -46.171875 L 3.535156 -46.171875 C 2.835938 -46.171875 2.402344 -45.671875 2.402344 -44.871094 L 2.402344 -1.269531 C 2.402344 -0.46875 2.769531 0 3.535156 0 L 23.652344 0 C 24.1875 0 24.621094 -0.367188 24.621094 -1.167969 L 24.621094 -6.90625 C 24.621094 -7.671875 24.1875 -8.039062 23.652344 -8.039062 Z M 11.277344 -8.039062" transform="translate(273.116 246.46)"/></g></g></g></svg>